<?xml version="1.0" encoding="UTF-8" standalone="no" ?>
<!DOCTYPE svg PUBLIC "-//W3C//DTD SVG 1.1//EN" "http://www.w3.org/Graphics/SVG/1.1/DTD/svg11.dtd">
<svg xmlns="http://www.w3.org/2000/svg" xmlns:xlink="http://www.w3.org/1999/xlink" version="1.1" width="1080" height="1080" viewBox="0 0 1080 1080" xml:space="preserve">
<desc>Created with Fabric.js 5.2.4</desc>
<defs>
</defs>
<rect x="0" y="0" width="100%" height="100%" fill="transparent"></rect>
<g transform="matrix(1 0 0 1 540 540)" id="865e83ba-e54d-47dc-b74e-42d6a8203425"  >
<rect style="stroke: none; stroke-width: 1; stroke-dasharray: none; stroke-linecap: butt; stroke-dashoffset: 0; stroke-linejoin: miter; stroke-miterlimit: 4; fill: rgb(255,255,255); fill-rule: nonzero; opacity: 1; visibility: hidden;" vector-effect="non-scaling-stroke"  x="-540" y="-540" rx="0" ry="0" width="1080" height="1080" />
</g>
<g transform="matrix(0 0 0 0 0 0)" id="7a89da47-0a1d-44b5-bb01-4eb7e5590374"  >
</g>
<g transform="matrix(2.81 0 0 2.81 540 514.12)"  >
<path style="stroke: none; stroke-width: 1; stroke-dasharray: none; stroke-linecap: butt; stroke-dashoffset: 0; stroke-linejoin: miter; stroke-miterlimit: 4; fill: rgb(0,0,0); fill-rule: nonzero; opacity: 1;" vector-effect="non-scaling-stroke"  transform=" translate(-184.03, -197.03)" d="M 365.6 23.1 C 354.8 28 343.20000000000005 30.200000000000003 331.70000000000005 32.5 C 319.90000000000003 34.8 308.30000000000007 37.7 297.20000000000005 42.1 C 288.00000000000006 45.800000000000004 278.80000000000007 49.800000000000004 272.20000000000005 57.5 C 266.00000000000006 64.7 261.30000000000007 73.2 253.80000000000004 79.1 C 253.60000000000005 79.19999999999999 253.50000000000003 79.39999999999999 253.50000000000003 79.6 C 253.10000000000002 79.8 252.70000000000002 80 252.30000000000004 80.19999999999999 C 252.00000000000003 80.39999999999999 251.80000000000004 80.6 251.70000000000005 80.89999999999999 C 233.10000000000005 89.39999999999999 216.90000000000003 104.19999999999999 202.90000000000003 118.5 C 186.80000000000004 135.1 171.90000000000003 153.1 158.20000000000005 171.6 C 156.10000000000005 174.5 154.00000000000006 177.4 151.90000000000003 180.29999999999998 C 153.50000000000003 176.79999999999998 155.10000000000002 173.2 156.50000000000003 169.6 C 161.60000000000002 156.79999999999998 165.20000000000002 143.29999999999998 167.00000000000003 129.7 C 168.90000000000003 115.99999999999999 167.80000000000004 102.69999999999999 168.00000000000003 88.99999999999999 C 168.10000000000002 81.09999999999998 169.20000000000002 73.39999999999999 171.30000000000004 65.79999999999998 C 172.90000000000003 59.59999999999998 176.60000000000005 52.899999999999984 176.90000000000003 46.59999999999998 C 176.90000000000003 46.39999999999998 176.80000000000004 46.29999999999998 176.70000000000005 46.19999999999998 C 176.80000000000004 45.79999999999998 176.30000000000004 45.399999999999984 175.90000000000003 45.69999999999998 C 164.90000000000003 54.29999999999998 154.70000000000005 63.499999999999986 148.60000000000002 76.29999999999998 C 142.60000000000002 88.99999999999999 138.10000000000002 103.89999999999998 136.3 117.79999999999998 C 134.10000000000002 133.99999999999997 136.60000000000002 150.2 137.4 166.39999999999998 C 137.8 173.99999999999997 137.9 181.59999999999997 137.1 189.2 C 136.29999999999998 197 133.7 203.7 131.5 211 C 115.3 237.4 101.4 265.4 91.8 294.5 C 89.8 300.6 87.89999999999999 306.7 86.3 312.9 C 86.1 310.9 86 309 85.7 307.09999999999997 C 84.3 296.29999999999995 81.2 285.7 76.60000000000001 275.79999999999995 C 76.10000000000001 274.69999999999993 75.50000000000001 273.59999999999997 74.9 272.49999999999994 C 74.9 272.29999999999995 74.80000000000001 271.99999999999994 74.80000000000001 271.79999999999995 C 75.4 268.19999999999993 73.9 263.99999999999994 74.20000000000002 260.19999999999993 C 74.60000000000002 254.49999999999994 76.20000000000002 248.79999999999993 78.90000000000002 243.69999999999993 C 83.30000000000003 235.39999999999992 91.90000000000002 230.29999999999993 95.30000000000001 221.59999999999994 C 99.4 223.69999999999993 104.70000000000002 221.89999999999995 108.4 219.69999999999993 C 112.4 217.29999999999993 115 213.09999999999994 114 208.29999999999993 C 113 203.39999999999992 108.1 199.69999999999993 103.3 199.39999999999992 C 98.3 199.0999999999999 94.2 202.79999999999993 92.39999999999999 207.19999999999993 C 90.69999999999999 211.49999999999994 90.39999999999999 217.99999999999994 94.39999999999999 221.19999999999993 C 91.6 226.79999999999993 86.19999999999999 229.99999999999994 82.1 234.39999999999992 C 78.6 238.19999999999993 75.8 242.79999999999993 73.8 247.5999999999999 C 73.3 248.89999999999992 72.8 250.2999999999999 72.39999999999999 251.6999999999999 C 72.8 246.8999999999999 73.69999999999999 242.0999999999999 74.49999999999999 237.3999999999999 C 76.29999999999998 226.6999999999999 77.09999999999998 215.8999999999999 75.59999999999998 205.19999999999987 C 75.69999999999997 205.09999999999988 75.79999999999998 204.89999999999986 75.79999999999998 204.69999999999987 C 80.39999999999998 202.69999999999987 85.39999999999998 199.69999999999987 87.39999999999998 194.79999999999987 C 89.19999999999997 190.39999999999986 88.49999999999997 185.19999999999987 85.59999999999998 181.39999999999986 C 84.19999999999997 179.59999999999985 82.29999999999998 177.99999999999986 80.09999999999998 177.19999999999987 C 78.09999999999998 176.4999999999999 75.19999999999997 176.19999999999987 73.39999999999998 177.4999999999999 C 71.39999999999998 178.8999999999999 70.29999999999998 181.2999999999999 69.49999999999997 183.4999999999999 C 68.49999999999997 186.2999999999999 67.69999999999997 189.3999999999999 67.49999999999997 192.3999999999999 C 67.09999999999997 197.6999999999999 69.19999999999997 203.7999999999999 74.79999999999997 205.3999999999999 C 74.49999999999997 211.59999999999988 74.79999999999997 217.8999999999999 74.19999999999997 224.09999999999988 C 73.59999999999998 231.19999999999987 71.89999999999998 238.09999999999988 70.69999999999997 245.09999999999988 C 69.79999999999997 250.19999999999987 68.79999999999997 256.89999999999986 69.19999999999997 262.9999999999999 C 60.39999999999998 249.19999999999987 49.89999999999998 236.3999999999999 45.49999999999997 220.3999999999999 C 46.39999999999997 217.8999999999999 46.79999999999997 215.1999999999999 47.49999999999997 212.59999999999988 C 48.09999999999997 210.19999999999987 49.09999999999997 207.69999999999987 48.89999999999997 205.09999999999988 C 48.59999999999997 200.4999999999999 44.09999999999997 197.3999999999999 39.89999999999997 196.59999999999988 C 35.49999999999997 195.79999999999987 31.69999999999997 197.9999999999999 29.99999999999997 202.09999999999988 C 28.299999999999972 206.29999999999987 29.39999999999997 210.79999999999987 31.89999999999997 214.4999999999999 C 34.49999999999997 218.2999999999999 39.09999999999997 222.8999999999999 44.199999999999974 221.2999999999999 C 45.99999999999997 233.4999999999999 52.09999999999997 243.7999999999999 58.59999999999997 253.9999999999999 C 45.99999999999997 248.69999999999987 35.09999999999997 241.19999999999987 23.699999999999974 233.4999999999999 C 23.699999999999974 233.19999999999987 23.499999999999975 232.8999999999999 23.199999999999974 232.7999999999999 C 23.099999999999973 232.7999999999999 22.999999999999975 232.7999999999999 22.999999999999975 232.6999999999999 C 21.999999999999975 230.0999999999999 22.199999999999974 227.2999999999999 21.799999999999976 224.49999999999991 C 21.499999999999975 222.1999999999999 20.699999999999974 220.0999999999999 19.299999999999976 218.29999999999993 C 16.599999999999977 214.89999999999992 11.899999999999975 212.99999999999991 7.699999999999976 214.29999999999993 C 3.699999999999976 215.49999999999991 0.499999999999976 219.39999999999992 0.1999999999999762 223.49999999999991 C -0.10000000000002379 228.1999999999999 2.8999999999999764 233.5999999999999 6.799999999999976 236.1999999999999 C 8.999999999999975 237.6999999999999 11.899999999999975 238.2999999999999 14.599999999999977 237.5999999999999 C 17.299999999999976 236.89999999999992 19.899999999999977 233.2999999999999 22.899999999999977 234.2999999999999 C 22.99999999999998 234.2999999999999 23.099999999999977 234.2999999999999 23.099999999999977 234.2999999999999 C 33.299999999999976 244.7999999999999 47.39999999999998 252.0999999999999 60.99999999999997 257.3999999999999 C 63.99999999999997 262.19999999999993 67.09999999999997 266.8999999999999 69.69999999999997 271.8999999999999 C 74.79999999999997 281.69999999999993 78.39999999999998 292.2999999999999 80.29999999999997 303.19999999999993 C 80.39999999999996 303.5999999999999 80.39999999999996 303.99999999999994 80.49999999999997 304.3999999999999 C 79.89999999999998 303.49999999999994 79.29999999999997 302.69999999999993 78.69999999999997 301.8999999999999 C 75.89999999999998 297.5999999999999 72.99999999999997 293.49999999999994 69.59999999999998 289.69999999999993 C 63.89999999999998 283.29999999999995 56.79999999999998 278.29999999999995 48.09999999999998 277.19999999999993 C 48.09999999999998 277.19999999999993 48.09999999999998 277.0999999999999 48.09999999999998 277.0999999999999 C 48.19999999999998 272.3999999999999 48.09999999999998 267.3999999999999 45.19999999999998 263.4999999999999 C 43.99999999999998 261.89999999999986 42.399999999999984 260.5999999999999 40.49999999999998 259.89999999999986 C 38.39999999999998 259.1999999999999 35.59999999999998 258.79999999999984 33.49999999999998 259.4999999999999 C 29.399999999999977 260.7999999999999 27.49999999999998 266.1999999999999 28.199999999999978 270.0999999999999 C 28.399999999999977 271.19999999999993 28.899999999999977 272.19999999999993 29.399999999999977 273.2999999999999 C 29.99999999999998 274.5999999999999 29.799999999999976 275.7999999999999 29.799999999999976 277.1999999999999 C 29.799999999999976 279.1999999999999 30.899999999999977 280.7999999999999 32.49999999999998 281.7999999999999 C 37.299999999999976 284.6999999999999 42.79999999999998 280.4999999999999 47.29999999999998 278.7999999999999 C 47.69999999999998 278.5999999999999 47.899999999999984 278.2999999999999 47.899999999999984 277.9999999999999 C 57.499999999999986 280.4999999999999 64.69999999999999 286.7999999999999 70.39999999999998 294.6999999999999 C 72.79999999999998 297.9999999999999 74.99999999999997 301.4999999999999 77.19999999999997 304.9999999999999 C 78.59999999999998 307.1999999999999 79.89999999999998 309.6999999999999 81.49999999999997 311.89999999999986 C 81.69999999999997 314.59999999999985 81.89999999999998 317.29999999999984 81.89999999999998 319.9999999999999 C 81.99999999999997 324.1999999999999 81.09999999999998 328.9999999999999 81.69999999999997 333.1999999999999 C 80.49999999999997 339.1999999999999 79.49999999999997 345.1999999999999 78.59999999999998 351.1999999999999 C 77.79999999999998 357.1999999999999 76.29999999999998 363.39999999999986 77.89999999999998 369.39999999999986 C 78.39999999999998 371.1999999999999 81.29999999999998 371.89999999999986 82.19999999999997 369.9999999999999 C 84.29999999999997 365.2999999999999 84.39999999999998 360.5999999999999 85.09999999999998 355.4999999999999 C 85.89999999999998 349.4999999999999 86.79999999999998 343.4999999999999 87.99999999999999 337.4999999999999 C 88.99999999999999 332.1999999999999 90.19999999999999 326.89999999999986 91.49999999999999 321.5999999999999 C 108.39999999999998 321.5999999999999 124.1 315.9999999999999 137.6 305.8999999999999 C 145.29999999999998 300.19999999999993 152.4 294.49999999999994 161.7 291.69999999999993 C 169.89999999999998 289.29999999999995 178.39999999999998 288.69999999999993 186.39999999999998 285.29999999999995 C 212.7 274.09999999999997 223.29999999999998 242.89999999999995 249.39999999999998 230.89999999999995 C 250.2 230.49999999999994 249.59999999999997 229.09999999999994 248.79999999999998 229.39999999999995 C 231.29999999999998 235.79999999999995 212 237.69999999999996 193.7 240.69999999999996 C 177.6 243.29999999999995 161.5 246.89999999999995 146.5 253.59999999999997 C 123.2 264.09999999999997 106.5 284.29999999999995 95.4 306.99999999999994 C 95.60000000000001 306.3999999999999 95.7 305.79999999999995 95.9 305.19999999999993 C 102.4 283.3999999999999 110.7 261.79999999999995 120.9 241.39999999999992 C 126.30000000000001 230.5999999999999 132.1 219.89999999999992 138.4 209.49999999999991 C 141.8 207.39999999999992 144.4 203.89999999999992 147.4 201.39999999999992 C 151.4 197.99999999999991 155.8 194.89999999999992 160.3 192.0999999999999 C 163.8 189.89999999999992 167.4 187.89999999999992 171.10000000000002 185.99999999999991 C 174.60000000000002 186.1999999999999 178.00000000000003 186.1999999999999 181.50000000000003 186.39999999999992 C 181.90000000000003 186.5999999999999 182.30000000000004 186.79999999999993 182.80000000000004 186.99999999999991 C 183.80000000000004 187.5999999999999 184.90000000000003 188.1999999999999 185.80000000000004 188.99999999999991 C 187.30000000000004 190.1999999999999 188.80000000000004 191.5999999999999 190.30000000000004 192.89999999999992 C 190.20000000000005 193.0999999999999 190.10000000000005 193.19999999999993 190.00000000000003 193.39999999999992 C 189.40000000000003 193.79999999999993 188.90000000000003 194.39999999999992 188.40000000000003 194.89999999999992 C 186.20000000000005 197.0999999999999 185.60000000000002 201.0999999999999 186.80000000000004 203.99999999999991 C 188.40000000000003 207.79999999999993 193.50000000000003 209.6999999999999 196.80000000000004 206.89999999999992 C 200.30000000000004 203.99999999999991 200.50000000000003 197.89999999999992 197.90000000000003 194.39999999999992 C 196.80000000000004 192.79999999999993 195.00000000000003 190.99999999999991 192.90000000000003 191.19999999999993 C 192.40000000000003 191.29999999999993 191.90000000000003 191.39999999999992 191.40000000000003 191.69999999999993 C 190.10000000000002 189.99999999999994 188.70000000000005 188.49999999999994 187.10000000000002 187.19999999999993 C 187.50000000000003 187.29999999999993 187.90000000000003 187.29999999999993 188.3 187.39999999999992 C 193.60000000000002 188.5999999999999 198.70000000000002 190.29999999999993 203.9 191.79999999999993 C 203.8 191.99999999999991 203.6 192.09999999999994 203.5 192.29999999999993 C 203.3 192.59999999999994 202.9 193.09999999999994 202.8 193.59999999999994 C 201.60000000000002 196.49999999999994 202.60000000000002 200.09999999999994 205.4 201.79999999999993 C 208.8 203.79999999999993 213.3 202.29999999999993 215.1 198.89999999999992 C 216.7 195.99999999999991 216.6 190.29999999999993 213.2 188.5999999999999 C 210.89999999999998 187.49999999999991 205.6 187.89999999999992 204.39999999999998 190.5999999999999 C 196.7 187.0999999999999 186.59999999999997 182.6999999999999 177.39999999999998 182.7999999999999 C 180.99999999999997 181.0999999999999 184.7 179.3999999999999 188.29999999999998 177.7999999999999 C 193.6 175.3999999999999 198.99999999999997 173.1999999999999 204.39999999999998 170.7999999999999 C 207.99999999999997 172.0999999999999 212.2 171.8999999999999 215.89999999999998 172.0999999999999 C 221.59999999999997 172.39999999999992 227.29999999999998 172.7999999999999 232.89999999999998 172.49999999999991 C 241.49999999999997 174.29999999999993 247.59999999999997 181.89999999999992 256.2 183.79999999999993 C 256.09999999999997 184.09999999999994 256.09999999999997 184.39999999999992 256.2 184.59999999999994 C 254.5 189.59999999999994 255.79999999999998 194.49999999999994 261.2 196.69999999999993 C 265.8 198.59999999999994 274.09999999999997 198.09999999999994 277 193.39999999999992 C 279.6 189.0999999999999 277.2 181.39999999999992 272.6 179.29999999999993 C 267.70000000000005 176.99999999999991 261 178.99999999999991 257.20000000000005 182.59999999999994 C 253.40000000000003 180.09999999999994 249.20000000000005 178.29999999999993 245.30000000000004 175.79999999999993 C 243.20000000000005 174.39999999999992 241.10000000000005 172.99999999999991 238.90000000000003 171.89999999999992 C 245.70000000000005 170.99999999999991 252.90000000000003 168.99999999999991 258.00000000000006 164.69999999999993 C 258.70000000000005 168.59999999999994 264.20000000000005 169.79999999999993 267.80000000000007 169.49999999999994 C 269.80000000000007 169.29999999999995 272.50000000000006 169.09999999999994 273.80000000000007 167.29999999999995 C 275.30000000000007 165.29999999999995 276.1000000000001 162.09999999999997 275.70000000000005 159.69999999999996 C 275.00000000000006 155.49999999999997 270.70000000000005 150.69999999999996 266.20000000000005 151.29999999999995 C 260.6 151.99999999999994 257.40000000000003 157.99999999999994 257.40000000000003 163.19999999999996 C 253.20000000000005 165.29999999999995 249.10000000000002 167.29999999999995 244.50000000000003 168.39999999999995 C 239.60000000000002 169.49999999999994 234.70000000000002 169.69999999999996 229.70000000000002 169.69999999999996 C 225.00000000000003 169.69999999999996 220.4 169.39999999999995 215.70000000000002 169.09999999999997 C 213.70000000000002 168.99999999999997 211.60000000000002 168.69999999999996 209.50000000000003 168.59999999999997 C 211.90000000000003 167.49999999999997 214.30000000000004 166.39999999999998 216.70000000000002 165.29999999999995 C 217.10000000000002 165.39999999999995 217.60000000000002 165.29999999999995 218.00000000000003 164.89999999999995 C 218.10000000000002 164.79999999999995 218.20000000000002 164.69999999999996 218.20000000000002 164.59999999999994 C 227.10000000000002 160.29999999999993 235.60000000000002 155.29999999999993 243.10000000000002 148.99999999999994 C 245.20000000000002 152.29999999999995 255.40000000000003 148.69999999999993 257.5 147.39999999999995 C 262.6 144.19999999999996 265.3 135.79999999999995 261.2 130.79999999999995 C 256.9 125.49999999999996 249.6 128.19999999999996 245.6 132.49999999999994 C 243 135.29999999999995 239.29999999999998 143.89999999999995 242.7 147.49999999999994 C 235.79999999999998 152.19999999999993 228.5 156.09999999999994 221.2 159.69999999999993 C 222.7 155.89999999999992 223.39999999999998 151.49999999999994 224.6 147.69999999999993 C 226.79999999999998 140.39999999999992 229.7 133.69999999999993 234 127.49999999999993 C 234 127.49999999999993 234.1 127.49999999999993 234.1 127.59999999999992 C 234.29999999999998 127.79999999999993 234.4 127.89999999999992 234.6 128.0999999999999 C 238.7 131.1999999999999 247.29999999999998 126.8999999999999 248.4 122.29999999999991 C 249.20000000000002 119.3999999999999 248 115.79999999999991 246.20000000000002 113.3999999999999 C 244.4 110.8999999999999 240.9 110.6999999999999 238.20000000000002 111.6999999999999 C 235.50000000000003 112.6999999999999 233.8 114.59999999999991 232.9 116.8999999999999 C 231.6 119.3999999999999 231.8 123.29999999999991 233 125.8999999999999 C 233 125.9999999999999 233 125.9999999999999 233.1 126.09999999999991 C 228.6 130.39999999999992 225.79999999999998 135.7999999999999 223.7 141.5999999999999 C 222.5 144.89999999999992 221.5 148.2999999999999 220.6 151.6999999999999 C 219.7 155.0999999999999 219 158.8999999999999 217 161.7999999999999 C 205.6 167.0999999999999 194 171.5999999999999 182.2 176.3999999999999 C 172.79999999999998 180.2999999999999 163.7 184.7999999999999 155.2 190.2999999999999 C 152.2 192.2999999999999 149.2 194.3999999999999 146.39999999999998 196.6999999999999 C 161.59999999999997 173.0999999999999 178.79999999999998 150.5999999999999 197.2 129.6999999999999 C 202.2 123.9999999999999 207.39999999999998 118.3999999999999 212.79999999999998 113.09999999999991 C 218.79999999999998 110.59999999999991 224.89999999999998 108.49999999999991 231.29999999999998 107.59999999999991 C 238.1 106.59999999999991 244.79999999999998 107.09999999999991 251.6 107.8999999999999 C 265.2 109.29999999999991 278.9 111.29999999999991 292.6 110.79999999999991 C 305.20000000000005 110.3999999999999 317.5 107.99999999999991 328.90000000000003 102.3999999999999 C 340.6 96.6999999999999 351.50000000000006 89.29999999999991 363.20000000000005 83.3999999999999 C 363.40000000000003 83.4999999999999 363.50000000000006 83.4999999999999 363.70000000000005 83.4999999999999 C 363.90000000000003 83.4999999999999 364.00000000000006 83.3999999999999 364.20000000000005 83.2999999999999 C 364.40000000000003 83.1999999999999 364.50000000000006 83.0999999999999 364.6 82.9999999999999 C 364.8 82.7999999999999 364.90000000000003 82.4999999999999 364.8 82.1999999999999 C 365.1 81.8999999999999 365.1 81.1999999999999 364.5 81.09999999999991 C 350.8 77.99999999999991 335.7 78.1999999999999 321.7 78.49999999999991 C 307.59999999999997 78.79999999999991 293.4 80.09999999999991 279.59999999999997 82.79999999999991 C 266.99999999999994 85.19999999999992 254.69999999999996 88.8999999999999 242.89999999999998 93.8999999999999 C 237.09999999999997 96.3999999999999 231.39999999999998 99.09999999999991 225.89999999999998 102.1999999999999 C 224.79999999999998 102.7999999999999 223.59999999999997 103.4999999999999 222.39999999999998 104.09999999999991 C 223.09999999999997 103.49999999999991 223.7 102.8999999999999 224.39999999999998 102.3999999999999 C 233.29999999999998 94.79999999999991 242.99999999999997 88.6999999999999 252.99999999999997 82.7999999999999 C 253.19999999999996 82.7999999999999 253.39999999999998 82.7999999999999 253.49999999999997 82.6999999999999 C 263.79999999999995 78.1999999999999 275.7 78.8999999999999 286.5 75.9999999999999 C 292.2 74.3999999999999 297.6 71.8999999999999 303.2 70.0999999999999 C 308.7 68.2999999999999 314.2 66.9999999999999 319.8 65.4999999999999 C 329.3 62.8999999999999 337.5 56.8999999999999 344.8 50.3999999999999 C 348.8 46.8999999999999 352.5 43.0999999999999 356 39.099999999999895 C 359.7 34.7999999999999 362.7 29.599999999999895 367.3 26.099999999999895 C 368.7 24.6 367.4 22.3 365.6 23.1 z M 93.5 209.6 C 94.5 205.7 97.5 202 101.8 201.7 C 106 201.39999999999998 109.7 204.39999999999998 111.3 208.1 C 112.1 209.79999999999998 112.3 211.6 111.6 213.4 C 111 215.20000000000002 109.6 216.6 108.19999999999999 217.8 C 104.79999999999998 220.4 99.29999999999998 222.70000000000002 95.19999999999999 220.5 C 95.19999999999999 220.5 95.1 220.5 95.1 220.5 C 92.2 217.9 92.6 212.9 93.5 209.6 z M 68.9 193.8 C 68.9 191.10000000000002 69.4 188.5 70.10000000000001 186 C 70.7 183.8 71.30000000000001 181.3 72.7 179.5 C 73.4 178.5 74.5 177.7 75.7 177.6 C 77 177.5 78.2 178.1 79.4 178.6 C 81.10000000000001 179.4 82.80000000000001 180.5 84.10000000000001 181.9 C 87.00000000000001 185.1 87.7 189.6 86.30000000000001 193.70000000000002 C 84.50000000000001 198.70000000000002 79.60000000000001 201.3 75.20000000000002 203.8 C 70.9 202.5 68.9 198 68.9 193.8 z M 44.1 219.4 C 44 219.4 43.800000000000004 219.4 43.7 219.4 C 39.900000000000006 220.5 36.300000000000004 217 34.2 214.20000000000002 C 32 211.3 30.500000000000004 207.50000000000003 31.6 203.8 C 32.6 200.4 35.5 198 39.1 198.4 C 43 198.8 47.3 201.70000000000002 47.400000000000006 205.9 C 47.6 210.6 45.1 214.9 44.1 219.4 z M 17.3 234.2 C 15.3 235.6 13.4 236.7 10.9 236.29999999999998 C 6.300000000000001 235.49999999999997 3.2 231.1 2 226.79999999999998 C 0.8999999999999999 222.6 2.8 218.49999999999997 6.7 216.7 C 10.4 215 14.600000000000001 216.1 17.3 219 C 19.1 220.9 19.8 223.1 20.1 225.6 C 20.3 228 20.400000000000002 230.29999999999998 21.1 232.6 C 19.8 232.7 18.5 233.4 17.3 234.2 z M 35.2 280.9 C 33.6 280.7 31.900000000000002 279.59999999999997 31.500000000000004 278 C 31.300000000000004 277 31.500000000000004 276 31.500000000000004 275 C 31.500000000000004 274 31.200000000000003 273.1 30.800000000000004 272.2 C 29.900000000000006 270.2 29.600000000000005 268.4 30.200000000000003 266.3 C 30.700000000000003 264.7 31.500000000000004 263 32.900000000000006 262.1 C 34.50000000000001 261.1 36.800000000000004 261.40000000000003 38.50000000000001 261.70000000000005 C 40.300000000000004 262.1 41.800000000000004 262.90000000000003 43.00000000000001 264.20000000000005 C 46.10000000000001 267.6 46.10000000000001 272.70000000000005 46.20000000000001 277.00000000000006 C 46.20000000000001 277.00000000000006 46.20000000000001 277.00000000000006 46.20000000000001 277.00000000000006 C 42.6 278.2 39.3 281.5 35.2 280.9 z M 117.6 284.9 C 112.39999999999999 288.5 107.8 292.9 103.89999999999999 297.79999999999995 C 101.89999999999999 300.4 100.1 303.09999999999997 98.3 305.9 C 98.2 306.09999999999997 98 306.4 97.89999999999999 306.59999999999997 C 102.1 298.7 106.3 290.99999999999994 111.8 283.79999999999995 C 122 270.29999999999995 135.1 260.09999999999997 150.8 253.59999999999997 C 165.70000000000002 247.39999999999998 181.8 244.59999999999997 197.60000000000002 241.99999999999997 C 212.10000000000002 239.59999999999997 226.20000000000002 237.09999999999997 240.3 233.29999999999998 C 220 245.5 209 269.8 187 280.2 C 179.2 283.9 170.4 285.7 162.3 288.4 C 154.5 291 147.9 294.59999999999997 141.3 299.29999999999995 C 134.10000000000002 304.4 126.9 309.4 118.4 312.29999999999995 C 113.2 314.09999999999997 107.9 315.19999999999993 102.4 315.9 C 102.80000000000001 315.7 103.2 315.59999999999997 103.60000000000001 315.4 C 107.7 313.59999999999997 111.30000000000001 311 114.2 307.59999999999997 C 114.7 306.99999999999994 113.9 306.2 113.3 306.7 C 110.2 309.5 106.6 311.8 102.8 313.4 C 101.3 314 99.7 314.5 98.2 314.9 C 100.3 312.29999999999995 102.2 309.59999999999997 104.3 307 C 108.89999999999999 301.4 114.2 296.6 119.8 292.2 C 120.2 291.9 119.7 291.09999999999997 119.2 291.4 C 113.4 295.29999999999995 108.3 300.2 103.60000000000001 305.4 C 101.4 307.9 99.30000000000001 310.59999999999997 97.2 313.2 C 96.5 314 95.8 314.8 95.10000000000001 315.59999999999997 C 94.80000000000001 315.7 94.4 315.7 94.10000000000001 315.79999999999995 C 96.2 313.29999999999995 97.7 310.19999999999993 99.4 307.4 C 101.10000000000001 304.59999999999997 102.9 301.7 104.9 299.09999999999997 C 108.7 293.99999999999994 113.2 289.49999999999994 118.30000000000001 285.59999999999997 C 118.5 285.3 118 284.7 117.6 284.9 z M 190.4 195.1 C 191.9 194.7 193.1 193.5 194.9 194.9 C 195.70000000000002 195.5 196.4 197 196.70000000000002 197.9 C 197.50000000000003 200.70000000000002 196.10000000000002 205.4 192.8 205.5 C 189.3 205.7 187.9 201.9 188.60000000000002 199 C 188.70000000000002 198.5 188.90000000000003 198.1 189.10000000000002 197.7 C 189.50000000000003 197.2 189.70000000000002 196.6 190.00000000000003 196 C 190.1 195.6 190.3 195.4 190.4 195.1 z M 204 194.6 C 204.4 194.29999999999998 204.7 193.6 204.9 193.2 C 205 193.1 205.1 193 205.20000000000002 192.79999999999998 C 205.4 192.79999999999998 205.60000000000002 192.79999999999998 205.9 192.7 C 207.5 191.89999999999998 209.1 191.2 210.9 191.2 C 214.70000000000002 191.29999999999998 214.5 196.2 212.8 198.5 C 211.10000000000002 200.8 207.60000000000002 201.5 205.4 199.4 C 203.8 198.1 203.9 196.3 204 194.6 z M 258 184.5 C 260.7 182.6 264.2 180.2 267.5 180.4 C 272.1 180.70000000000002 275.5 185.6 275.1 190 C 274.70000000000005 195.2 267.3 195.7 263.5 194.8 C 258.2 193.5 257.5 189.2 258 184.5 z M 264.4 154.4 C 267.79999999999995 152.9 271.29999999999995 156.5 272.4 159.4 C 273 161 272.9 162.8 272.29999999999995 164.4 C 271.49999999999994 166.5 270.59999999999997 166.8 268.29999999999995 167 C 264.99999999999994 167.3 261.29999999999995 166.9 259.9 163.7 C 259.9 163.7 259.9 163.7 259.9 163.7 C 259.8 160.4 261.2 155.8 264.4 154.4 z M 246.1 134.7 C 248.6 130.5 253.79999999999998 129.1 257.7 132.6 C 261.4 135.9 259.8 142.4 256 144.79999999999998 C 254.2 145.89999999999998 247.6 148.79999999999998 245.3 146.99999999999997 C 245.20000000000002 146.79999999999998 245.10000000000002 146.59999999999997 244.9 146.39999999999998 C 244.8 146.29999999999998 244.8 146.29999999999998 244.70000000000002 146.2 C 244.60000000000002 146.1 244.50000000000003 146 244.4 145.89999999999998 C 242.3 143.5 244.8 136.8 246.1 134.7 z M 236.9 115.7 C 240.70000000000002 112.10000000000001 246 116.2 245.4 120.9 C 245.1 122.80000000000001 243.9 124 242.3 124.9 C 241.60000000000002 125.30000000000001 240.8 125.60000000000001 240.10000000000002 125.80000000000001 C 238.40000000000003 126.30000000000001 237.3 126.60000000000001 236.00000000000003 125.20000000000002 C 235.70000000000002 124.80000000000001 235.40000000000003 124.50000000000001 235.20000000000002 124.00000000000001 C 234.6 121.2 234.6 117.9 236.9 115.7 z M 139.8 197 C 139.8 197.2 139.70000000000002 197.3 139.70000000000002 197.5 C 139.3 198.3 138.9 199.1 138.60000000000002 199.9 C 138.40000000000003 200.20000000000002 138.20000000000002 200.6 137.90000000000003 200.9 C 138.40000000000003 198.9 138.80000000000004 196.8 139.20000000000005 194.8 C 139.20000000000005 194.8 139.20000000000005 194.8 139.30000000000004 194.8 C 139.50000000000003 194.60000000000002 139.70000000000005 194.4 139.90000000000003 194.20000000000002 C 139.7 195.1 139.7 196.1 139.8 197 z M 146.4 185.7 C 145.1 188.2 143.5 190.79999999999998 142 193.39999999999998 C 142.2 192.49999999999997 142.5 191.7 142.7 190.89999999999998 C 144 189.2 145.2 187.39999999999998 146.29999999999998 185.59999999999997 C 147.2 183.99999999999997 148.1 182.39999999999998 148.89999999999998 180.69999999999996 C 148.1 182.3 147.3 184 146.4 185.7 z M 155.8 132.6 C 155.4 141.7 154.70000000000002 150.79999999999998 153.5 159.79999999999998 C 152.3 167.99999999999997 150.5 176.1 146.5 183.39999999999998 C 145.7 184.79999999999998 144.9 186.09999999999997 144 187.39999999999998 C 144.1 187.09999999999997 144.2 186.89999999999998 144.3 186.59999999999997 C 146.3 180.99999999999997 148.4 175.39999999999998 149.60000000000002 169.59999999999997 C 150.8 163.59999999999997 151.40000000000003 157.49999999999997 151.70000000000002 151.39999999999998 C 152.00000000000003 145.09999999999997 152.3 138.7 152.50000000000003 132.29999999999998 C 152.80000000000004 124.99999999999999 153.10000000000002 117.69999999999999 153.30000000000004 110.39999999999998 C 153.30000000000004 109.99999999999997 152.60000000000005 109.99999999999997 152.60000000000005 110.39999999999998 C 151.80000000000004 123.29999999999998 151.30000000000004 136.29999999999998 150.30000000000004 149.2 C 149.90000000000003 155.5 149.30000000000004 161.79999999999998 148.10000000000005 167.89999999999998 C 147.30000000000004 172.09999999999997 146.10000000000005 175.99999999999997 144.80000000000004 179.99999999999997 C 144.80000000000004 179.99999999999997 144.80000000000004 179.99999999999997 144.80000000000004 179.89999999999998 C 145.20000000000005 177.79999999999998 145.30000000000004 175.7 145.50000000000003 173.59999999999997 C 146.10000000000002 164.39999999999998 145.90000000000003 155.29999999999995 145.30000000000004 146.09999999999997 C 145.30000000000004 145.49999999999997 144.40000000000003 145.49999999999997 144.40000000000003 146.09999999999997 C 144.90000000000003 155.29999999999995 144.80000000000004 164.59999999999997 144.20000000000005 173.79999999999995 C 144.10000000000005 176.09999999999997 143.90000000000003 178.39999999999995 143.40000000000003 180.69999999999996 C 142.90000000000003 182.89999999999995 142.10000000000002 184.89999999999995 141.40000000000003 186.99999999999997 C 140.80000000000004 188.69999999999996 140.40000000000003 190.59999999999997 140.10000000000002 192.49999999999997 C 139.90000000000003 192.69999999999996 139.70000000000002 192.99999999999997 139.50000000000003 193.19999999999996 C 140.50000000000003 186.39999999999995 140.60000000000002 179.39999999999995 140.50000000000003 173.29999999999995 C 140.30000000000004 157.69999999999996 137.80000000000004 142.09999999999997 138.50000000000003 126.39999999999995 C 139.20000000000002 111.09999999999995 143.30000000000004 95.19999999999995 148.90000000000003 80.89999999999995 C 154.20000000000005 67.39999999999995 163.70000000000005 57.79999999999995 174.20000000000005 48.29999999999995 C 171.70000000000005 52.699999999999946 170.40000000000003 58.49999999999994 169.10000000000005 63.09999999999995 C 167.40000000000006 68.99999999999996 166.20000000000005 74.99999999999996 165.60000000000005 81.09999999999995 C 164.20000000000005 95.59999999999995 166.40000000000006 110.09999999999995 164.80000000000004 124.69999999999996 C 163.30000000000004 138.59999999999997 159.80000000000004 152.19999999999996 155.00000000000003 165.29999999999995 C 153.50000000000003 169.29999999999995 151.90000000000003 173.29999999999995 150.20000000000002 177.19999999999996 C 150.60000000000002 176.29999999999995 150.9 175.39999999999995 151.20000000000002 174.49999999999997 C 154.10000000000002 166.09999999999997 154.9 156.99999999999997 155.70000000000002 148.19999999999996 C 156.10000000000002 142.89999999999995 156.4 137.49999999999997 156.4 132.19999999999996 C 156.4 132.2 155.8 132.2 155.8 132.6 z M 223.4 106.2 C 224.8 105.8 226.3 105.4 227.70000000000002 105.10000000000001 C 230.70000000000002 104.50000000000001 233.70000000000002 104.10000000000001 236.70000000000002 103.80000000000001 C 242.50000000000003 103.30000000000001 248.3 103.20000000000002 254.10000000000002 103.00000000000001 C 254.70000000000002 103.00000000000001 254.70000000000002 102.10000000000001 254.10000000000002 102.10000000000001 C 248.10000000000002 101.9 242.20000000000002 102.00000000000001 236.20000000000002 102.50000000000001 C 234.70000000000002 102.60000000000001 233.10000000000002 102.80000000000001 231.60000000000002 103.00000000000001 C 231.8 102.90000000000002 231.90000000000003 102.90000000000002 232.10000000000002 102.80000000000001 C 235.60000000000002 101.80000000000001 239.20000000000002 100.9 242.8 100.30000000000001 C 250.10000000000002 98.9 257.5 97.9 264.90000000000003 96.80000000000001 C 269.1 96.20000000000002 273.40000000000003 95.50000000000001 277.50000000000006 94.50000000000001 C 278.00000000000006 94.40000000000002 277.80000000000007 93.70000000000002 277.30000000000007 93.80000000000001 C 269.80000000000007 95.20000000000002 262.20000000000005 96.10000000000001 254.60000000000008 97.00000000000001 C 247.20000000000007 97.90000000000002 239.9000000000001 98.90000000000002 232.70000000000007 101.00000000000001 C 232.50000000000009 101.00000000000001 232.40000000000006 101.10000000000001 232.20000000000007 101.10000000000001 C 233.00000000000009 100.7 233.70000000000007 100.30000000000001 234.50000000000009 99.9 C 235.10000000000008 99.7 235.8000000000001 99.5 236.4000000000001 99.4 C 238.50000000000009 98.9 240.60000000000008 98.5 242.7000000000001 98 C 246.9000000000001 97.1 251.1000000000001 96 255.1000000000001 94.3 C 255.6000000000001 94.1 255.2000000000001 93.3 254.8000000000001 93.5 C 250.7000000000001 94.9 246.4000000000001 96 242.2000000000001 96.9 C 241.4000000000001 97.10000000000001 240.5000000000001 97.30000000000001 239.7000000000001 97.4 C 241.3000000000001 96.7 242.9000000000001 96 244.6000000000001 95.30000000000001 C 256 90.9 268 87.4 280.2 85 C 293.9 82.3 307.59999999999997 81 321.59999999999997 80.8 C 334.79999999999995 80.5 347.9 82.1 361.09999999999997 82.1 C 349.49999999999994 85.69999999999999 339.49999999999994 93 328.59999999999997 98.3 C 315.2 104.8 300.99999999999994 107.1 286.2 107 C 272.3 106.9 258.5 105.2 244.6 104.3 C 237.29999999999998 103.8 229.79999999999998 104.5 222.79999999999998 106.6 C 223 106.5 223.2 106.4 223.4 106.2 z M 345 44.5 C 336.5 52.3 326.5 59.5 315.4 63.1 C 310.09999999999997 64.8 304.9 66.2 299.7 68.1 C 294.3 70.19999999999999 288.7 72 283 73.1 C 274.7 74.6 266.6 75.1 258.7 77.6 C 258.9 77.39999999999999 259.09999999999997 77.19999999999999 259.3 77 C 267.1 74.3 275.3 72.9 283.40000000000003 71.2 C 284.00000000000006 71.10000000000001 283.70000000000005 70.2 283.20000000000005 70.3 C 278.50000000000006 71.2 273.80000000000007 72 269.1 72.89999999999999 C 267.3 73.3 265.40000000000003 73.6 263.6 74.1 C 265.90000000000003 72.8 268.3 71.6 270.70000000000005 70.5 C 276.70000000000005 67.7 282.70000000000005 64.9 288.70000000000005 62 C 289.20000000000005 61.8 288.80000000000007 61.1 288.30000000000007 61.3 C 281.9000000000001 64.1 275.6000000000001 67 269.20000000000005 69.89999999999999 C 267.30000000000007 70.8 265.40000000000003 71.49999999999999 263.40000000000003 72.3 C 263.40000000000003 72.3 263.40000000000003 72.3 263.40000000000003 72.3 C 263.50000000000006 72.2 263.70000000000005 72 263.8 71.89999999999999 C 264.8 70.8 266 69.8 267.2 68.89999999999999 C 269.59999999999997 67.19999999999999 272.2 65.69999999999999 275 64.8 C 275.5 64.6 275.3 63.8 274.8 64 C 272.1 64.7 269.6 65.8 267.3 67.3 C 268.90000000000003 65.1 270.5 62.9 272.3 60.8 C 280 51.5 291 46.9 302.1 42.9 C 320.5 36.3 340.6 35.5 359 29.099999999999998 C 354.3 34.1 350.1 39.8 345 44.5 z" stroke-linecap="round" />
</g>
<g transform="matrix(2.89 0 0 2.89 554.13 670)"  >
<path style="stroke: none; stroke-width: 1; stroke-dasharray: none; stroke-linecap: butt; stroke-dashoffset: 0; stroke-linejoin: miter; stroke-miterlimit: 4; fill: rgb(0,0,0); fill-rule: nonzero; opacity: 1;" vector-effect="non-scaling-stroke"  transform=" translate(-183.87, -256.15)" d="M 210.2 245.8 C 201.39999999999998 249.5 191.79999999999998 250.8 182.79999999999998 253.9 C 178.39999999999998 255.4 174.1 257.2 169.99999999999997 259.2 C 167.89999999999998 260.2 165.59999999999997 261 163.69999999999996 262.3 C 161.59999999999997 263.7 159.29999999999995 264.6 157.09999999999997 265.8 C 156.59999999999997 266.1 156.99999999999997 266.7 157.49999999999997 266.5 C 159.69999999999996 265.4 161.79999999999998 263.9 164.19999999999996 263.2 C 165.19999999999996 262.9 166.19999999999996 262.2 167.09999999999997 261.8 C 168.19999999999996 261.3 169.29999999999995 260.7 170.49999999999997 260.2 C 174.89999999999998 258.09999999999997 179.39999999999998 256.2 183.89999999999998 254.6 C 192.7 251.6 202.2 250.7 210.59999999999997 246.6 C 211.2 246.3 210.7 245.6 210.2 245.8 z" stroke-linecap="round" />
</g>
<g transform="matrix(2.89 0 0 2.89 463.42 706.96)"  >
<path style="stroke: none; stroke-width: 1; stroke-dasharray: none; stroke-linecap: butt; stroke-dashoffset: 0; stroke-linejoin: miter; stroke-miterlimit: 4; fill: rgb(0,0,0); fill-rule: nonzero; opacity: 1;" vector-effect="non-scaling-stroke"  transform=" translate(-152.46, -268.97)" d="M 154.3 267.6 C 153.5 268 152.8 268.40000000000003 152 268.8 C 151.6 269 151.3 269.2 150.9 269.40000000000003 C 150.70000000000002 269.50000000000006 150.6 269.70000000000005 150.4 269.8 C 150.20000000000002 269.90000000000003 150 270 149.9 270.2 C 149.9 270.3 149.9 270.4 150 270.4 C 150.2 270.4 150.4 270.29999999999995 150.6 270.2 C 150.79999999999998 270.09999999999997 151 270.09999999999997 151.2 270 C 151.6 269.8 152 269.7 152.39999999999998 269.5 C 153.2 269.1 153.99999999999997 268.7 154.79999999999998 268.3 C 155.3 268.1 154.9 267.3 154.3 267.6 z" stroke-linecap="round" />
</g>
<g transform="matrix(2.89 0 0 2.89 428.73 727.77)"  >
<path style="stroke: none; stroke-width: 1; stroke-dasharray: none; stroke-linecap: butt; stroke-dashoffset: 0; stroke-linejoin: miter; stroke-miterlimit: 4; fill: rgb(0,0,0); fill-rule: nonzero; opacity: 1;" vector-effect="non-scaling-stroke"  transform=" translate(-140.44, -276.17)" d="M 146.5 271.2 C 145.3 271.8 144.1 272.7 143 273.5 C 141.9 274.3 140.7 275.2 139.6 276 C 138.5 276.8 137.4 277.6 136.29999999999998 278.4 C 135.7 278.79999999999995 135.1 279.2 134.6 279.7 C 134.2 280 133.6 280.3 133.5 280.9 C 133.5 281.09999999999997 133.6 281.2 133.7 281.2 C 134.29999999999998 281.2 134.7 280.8 135.2 280.5 C 135.79999999999998 280.1 136.39999999999998 279.6 136.89999999999998 279.2 C 137.99999999999997 278.4 139.2 277.59999999999997 140.29999999999998 276.8 C 141.39999999999998 276 142.49999999999997 275.3 143.7 274.6 C 144.89999999999998 273.90000000000003 146.1 273.1 147.2 272.20000000000005 C 147.7 271.7 147 270.9 146.5 271.2 z" stroke-linecap="round" />
</g>
<g transform="matrix(2.89 0 0 2.89 388.82 754.25)"  >
<path style="stroke: none; stroke-width: 1; stroke-dasharray: none; stroke-linecap: butt; stroke-dashoffset: 0; stroke-linejoin: miter; stroke-miterlimit: 4; fill: rgb(0,0,0); fill-rule: nonzero; opacity: 1;" vector-effect="non-scaling-stroke"  transform=" translate(-126.61, -285.35)" d="M 130.9 281.7 C 129.4 282.8 127.9 283.9 126.4 285 L 124.2 286.6 C 123.5 287.1 122.60000000000001 287.70000000000005 122 288.3 C 121.6 288.7 122.1 289.3 122.5 289 C 123.3 288.6 124 287.9 124.6 287.4 C 125.3 286.79999999999995 126.1 286.2 126.8 285.59999999999997 C 128.3 284.4 129.7 283.29999999999995 131.2 282.09999999999997 C 131.6 282 131.2 281.4 130.9 281.7 z" stroke-linecap="round" />
</g>
<g transform="matrix(2.89 0 0 2.89 434.75 697.3)"  >
<path style="stroke: none; stroke-width: 1; stroke-dasharray: none; stroke-linecap: butt; stroke-dashoffset: 0; stroke-linejoin: miter; stroke-miterlimit: 4; fill: rgb(0,0,0); fill-rule: nonzero; opacity: 1;" vector-effect="non-scaling-stroke"  transform=" translate(-142.51, -265.61)" d="M 156.7 256.6 C 151.39999999999998 258.6 146.29999999999998 261 141.39999999999998 263.90000000000003 C 136.59999999999997 266.70000000000005 131.59999999999997 269.90000000000003 127.79999999999998 274.00000000000006 C 127.49999999999999 274.30000000000007 127.89999999999998 274.80000000000007 128.2 274.6000000000001 C 130.39999999999998 273.00000000000006 132.5 271.30000000000007 134.7 269.7000000000001 C 137 268.1000000000001 139.29999999999998 266.5000000000001 141.7 265.1000000000001 C 146.5 262.2000000000001 151.6 259.7000000000001 156.89999999999998 257.7000000000001 C 157.6 257.4 157.4 256.4 156.7 256.6 z" stroke-linecap="round" />
</g>
<g transform="matrix(2.89 0 0 2.89 377.82 738.44)"  >
<path style="stroke: none; stroke-width: 1; stroke-dasharray: none; stroke-linecap: butt; stroke-dashoffset: 0; stroke-linejoin: miter; stroke-miterlimit: 4; fill: rgb(0,0,0); fill-rule: nonzero; opacity: 1;" vector-effect="non-scaling-stroke"  transform=" translate(-122.81, -279.87)" d="M 124.2 277.5 C 123.9 277.9 123.60000000000001 278.2 123.2 278.6 C 122.9 279 122.60000000000001 279.40000000000003 122.3 279.8 C 122 280.2 121.7 280.6 121.39999999999999 281 C 121.19999999999999 281.4 120.89999999999999 281.8 120.8 282.2 C 120.8 282.3 120.89999999999999 282.4 121 282.3 C 121.4 282.1 121.7 281.8 122 281.5 C 122.3 281.1 122.7 280.8 123 280.4 C 123.3 280 123.6 279.59999999999997 123.9 279.2 C 124.2 278.8 124.5 278.4 124.80000000000001 278 C 124.9 277.6 124.4 277.2 124.2 277.5 z" stroke-linecap="round" />
</g>
<g transform="matrix(2.89 0 0 2.89 517.3 725.6)"  >
<path style="stroke: none; stroke-width: 1; stroke-dasharray: none; stroke-linecap: butt; stroke-dashoffset: 0; stroke-linejoin: miter; stroke-miterlimit: 4; fill: rgb(0,0,0); fill-rule: nonzero; opacity: 1;" vector-effect="non-scaling-stroke"  transform=" translate(-171.12, -275.42)" d="M 179 270.8 C 176.4 272.6 173.7 274.2 170.9 275.6 C 169.5 276.3 168.1 277 166.70000000000002 277.6 C 165.4 278.20000000000005 163.8 278.5 162.70000000000002 279.6 C 162.50000000000003 279.8 162.70000000000002 280.1 162.9 280.1 C 164.3 280.20000000000005 165.70000000000002 279.3 167 278.8 C 168.5 278.1 169.9 277.40000000000003 171.3 276.7 C 174.10000000000002 275.2 176.8 273.5 179.4 271.7 C 179.9 271.3 179.5 270.5 179 270.8 z" stroke-linecap="round" />
</g>
<g transform="matrix(2.89 0 0 2.89 433.33 769.51)"  >
<path style="stroke: none; stroke-width: 1; stroke-dasharray: none; stroke-linecap: butt; stroke-dashoffset: 0; stroke-linejoin: miter; stroke-miterlimit: 4; fill: rgb(0,0,0); fill-rule: nonzero; opacity: 1;" vector-effect="non-scaling-stroke"  transform=" translate(-142.02, -290.63)" d="M 159.2 281.7 C 153 283.9 146.5 285.8 140.5 288.59999999999997 C 137.6 289.99999999999994 134.8 291.7 132 293.49999999999994 C 130.6 294.3999999999999 129.2 295.3999999999999 127.8 296.29999999999995 C 126.7 297.09999999999997 125.2 297.9 124.39999999999999 298.99999999999994 C 124.19999999999999 299.29999999999995 124.49999999999999 299.59999999999997 124.8 299.59999999999997 C 126.2 299.2 127.39999999999999 298.09999999999997 128.6 297.29999999999995 C 129.9 296.4 131.2 295.49999999999994 132.5 294.59999999999997 C 135.1 292.79999999999995 137.9 291.09999999999997 140.7 289.59999999999997 C 146.6 286.49999999999994 153 284.59999999999997 159.29999999999998 282.49999999999994 C 160 282.3 159.7 281.5 159.2 281.7 z" stroke-linecap="round" />
</g>
<g transform="matrix(2.89 0 0 2.89 362.99 808.3)"  >
<path style="stroke: none; stroke-width: 1; stroke-dasharray: none; stroke-linecap: butt; stroke-dashoffset: 0; stroke-linejoin: miter; stroke-miterlimit: 4; fill: rgb(0,0,0); fill-rule: nonzero; opacity: 1;" vector-effect="non-scaling-stroke"  transform=" translate(-117.66, -304.08)" d="M 119.7 302.5 C 119.5 302.3 119.2 302.3 119 302.5 C 118.4 303 117.8 303.4 117.2 303.8 C 116.9 304 116.60000000000001 304.2 116.3 304.40000000000003 C 116.1 304.50000000000006 115.8 304.70000000000005 115.7 304.90000000000003 C 115.7 304.90000000000003 115.7 305.00000000000006 115.7 305.00000000000006 C 115.7 305.00000000000006 115.60000000000001 305.1000000000001 115.60000000000001 305.1000000000001 C 115.60000000000001 305.2000000000001 115.50000000000001 305.30000000000007 115.50000000000001 305.4000000000001 C 115.40000000000002 305.5000000000001 115.60000000000001 305.7000000000001 115.70000000000002 305.7000000000001 C 115.80000000000001 305.7000000000001 115.90000000000002 305.8000000000001 115.90000000000002 305.8000000000001 C 115.90000000000002 305.8000000000001 116.10000000000002 305.8000000000001 116.10000000000002 305.8000000000001 C 116.10000000000002 305.8000000000001 116.00000000000003 305.8000000000001 116.00000000000003 305.8000000000001 C 116.10000000000002 305.8000000000001 116.10000000000002 305.8000000000001 116.20000000000003 305.8000000000001 C 116.40000000000003 305.8000000000001 116.70000000000003 305.60000000000014 116.90000000000003 305.5000000000001 C 117.20000000000003 305.3000000000001 117.60000000000004 305.10000000000014 117.90000000000003 304.9000000000001 C 118.60000000000004 304.4000000000001 119.20000000000003 303.9000000000001 119.70000000000003 303.30000000000007 C 119.9 303 119.9 302.7 119.7 302.5 z" stroke-linecap="round" />
</g>
<g transform="matrix(2.89 0 0 2.89 619.26 664.42)"  >
<path style="stroke: none; stroke-width: 1; stroke-dasharray: none; stroke-linecap: butt; stroke-dashoffset: 0; stroke-linejoin: miter; stroke-miterlimit: 4; fill: rgb(0,0,0); fill-rule: nonzero; opacity: 1;" vector-effect="non-scaling-stroke"  transform=" translate(-206.46, -254.22)" d="M 216.2 248.2 C 212.89999999999998 250.2 209.89999999999998 252.5 206.5 254.39999999999998 C 204.9 255.29999999999998 203.2 256.2 201.6 257 C 199.9 257.8 198 258.5 196.4 259.4 C 195.9 259.7 196.20000000000002 260.5 196.8 260.29999999999995 C 198.60000000000002 259.9 200.3 258.99999999999994 201.9 258.19999999999993 C 203.70000000000002 257.3999999999999 205.4 256.3999999999999 207.1 255.49999999999994 C 210.5 253.59999999999994 213.7 251.39999999999995 216.6 248.79999999999995 C 217 248.5 216.6 247.9 216.2 248.2 z" stroke-linecap="round" />
</g>
<g transform="matrix(2.89 0 0 2.89 574.12 691.31)"  >
<path style="stroke: none; stroke-width: 1; stroke-dasharray: none; stroke-linecap: butt; stroke-dashoffset: 0; stroke-linejoin: miter; stroke-miterlimit: 4; fill: rgb(0,0,0); fill-rule: nonzero; opacity: 1;" vector-effect="non-scaling-stroke"  transform=" translate(-190.82, -263.54)" d="M 193.5 261.9 C 193.4 261.7 193.1 261.59999999999997 192.9 261.7 C 192 262.09999999999997 191.1 262.59999999999997 190.3 263.2 C 189.9 263.5 189.4 263.7 189.10000000000002 264.09999999999997 C 188.70000000000002 264.49999999999994 188.40000000000003 264.79999999999995 188.10000000000002 265.2 C 188.00000000000003 265.3 188.20000000000002 265.5 188.3 265.4 C 188.70000000000002 265.2 189.10000000000002 264.9 189.60000000000002 264.7 C 190.00000000000003 264.5 190.40000000000003 264.09999999999997 190.8 263.9 C 191.60000000000002 263.4 192.5 262.9 193.4 262.5 C 193.6 262.4 193.6 262.1 193.5 261.9 z" stroke-linecap="round" />
</g>
<g transform="matrix(2.89 0 0 2.89 571.69 643.96)"  >
<path style="stroke: none; stroke-width: 1; stroke-dasharray: none; stroke-linecap: butt; stroke-dashoffset: 0; stroke-linejoin: miter; stroke-miterlimit: 4; fill: rgb(0,0,0); fill-rule: nonzero; opacity: 1;" vector-effect="non-scaling-stroke"  transform=" translate(-189.97, -247.13)" d="M 205.4 244.3 C 200.3 245.8 195 246.70000000000002 189.8 247.4 C 184.70000000000002 248.1 179.4 248.3 174.3 249.3 C 173.9 249.4 174 250 174.4 250 C 177.1 249.9 179.8 249.6 182.5 249.3 C 185.2 249 187.8 248.70000000000002 190.5 248.4 C 195.6 247.70000000000002 200.7 246.8 205.6 245.20000000000002 C 206.1 244.9 205.9 244.1 205.4 244.3 z" stroke-linecap="round" />
</g>
<g transform="matrix(2.89 0 0 2.89 498.59 662.2)"  >
<path style="stroke: none; stroke-width: 1; stroke-dasharray: none; stroke-linecap: butt; stroke-dashoffset: 0; stroke-linejoin: miter; stroke-miterlimit: 4; fill: rgb(0,0,0); fill-rule: nonzero; opacity: 1;" vector-effect="non-scaling-stroke"  transform=" translate(-164.65, -253.45)" d="M 169.1 251.4 C 167.4 251.70000000000002 165.79999999999998 252 164.2 252.6 C 163.39999999999998 252.9 162.7 253.29999999999998 161.89999999999998 253.7 C 161.2 254.1 160.39999999999998 254.5 159.99999999999997 255.1 C 159.79999999999998 255.29999999999998 160.09999999999997 255.6 160.29999999999998 255.5 C 160.99999999999997 255.4 161.7 254.9 162.39999999999998 254.5 C 163.09999999999997 254.1 163.89999999999998 253.8 164.59999999999997 253.5 C 166.09999999999997 252.8 167.59999999999997 252.2 169.09999999999997 251.8 C 169.5 251.8 169.4 251.3 169.1 251.4 z" stroke-linecap="round" />
</g>
<g transform="matrix(2.89 0 0 2.89 482.88 175.8)"  >
<path style="stroke: none; stroke-width: 1; stroke-dasharray: none; stroke-linecap: butt; stroke-dashoffset: 0; stroke-linejoin: miter; stroke-miterlimit: 4; fill: rgb(0,0,0); fill-rule: nonzero; opacity: 1;" vector-effect="non-scaling-stroke"  transform=" translate(-159.2, -84.9)" d="M 164.2 62.3 C 160.1 68.89999999999999 157.7 76.3 156.2 83.9 C 155.5 87.7 155 91.5 154.6 95.30000000000001 C 154.2 99.30000000000001 153.6 103.30000000000001 153.7 107.30000000000001 C 153.7 107.60000000000001 154.29999999999998 107.70000000000002 154.29999999999998 107.4 C 154.89999999999998 103.7 154.89999999999998 99.9 155.29999999999998 96.2 C 155.7 92.2 156.2 88.3 156.89999999999998 84.4 C 158.29999999999998 76.80000000000001 160.7 69.30000000000001 164.7 62.60000000000001 C 164.8 62.3 164.4 62.1 164.2 62.3 z" stroke-linecap="round" />
</g>
<g transform="matrix(2.89 0 0 2.89 443.79 258.5)"  >
<path style="stroke: none; stroke-width: 1; stroke-dasharray: none; stroke-linecap: butt; stroke-dashoffset: 0; stroke-linejoin: miter; stroke-miterlimit: 4; fill: rgb(0,0,0); fill-rule: nonzero; opacity: 1;" vector-effect="non-scaling-stroke"  transform=" translate(-145.67, -113.56)" d="M 147.1 98.1 C 145.79999999999998 103.19999999999999 144.4 108.3 144 113.6 C 143.8 116.19999999999999 143.7 118.8 143.7 121.39999999999999 C 143.7 123.99999999999999 143.5 126.6 143.79999999999998 129.1 C 143.79999999999998 129.29999999999998 144.2 129.29999999999998 144.2 129.1 C 144.6 126.69999999999999 144.5 124.3 144.6 121.8 C 144.6 119.2 144.7 116.6 144.9 114 C 145.3 108.7 146.6 103.4 147.70000000000002 98.2 C 147.7 97.9 147.2 97.7 147.1 98.1 z" stroke-linecap="round" />
</g>
<g transform="matrix(2.89 0 0 2.89 439.05 327.93)"  >
<path style="stroke: none; stroke-width: 1; stroke-dasharray: none; stroke-linecap: butt; stroke-dashoffset: 0; stroke-linejoin: miter; stroke-miterlimit: 4; fill: rgb(0,0,0); fill-rule: nonzero; opacity: 1;" vector-effect="non-scaling-stroke"  transform=" translate(-144.02, -137.63)" d="M 144.5 139.6 C 144.4 139 144.4 138.4 144.3 137.79999999999998 C 144.20000000000002 136.6 144.10000000000002 135.49999999999997 144.10000000000002 134.29999999999998 C 144.10000000000002 133.89999999999998 143.40000000000003 133.89999999999998 143.40000000000003 134.29999999999998 C 143.40000000000003 135.49999999999997 143.40000000000003 136.7 143.50000000000003 137.79999999999998 C 143.50000000000003 138.39999999999998 143.60000000000002 138.89999999999998 143.70000000000002 139.49999999999997 C 143.8 139.99999999999997 143.9 140.69999999999996 144.20000000000002 141.19999999999996 C 144.3 141.29999999999995 144.60000000000002 141.29999999999995 144.60000000000002 141.09999999999997 C 144.7 140.7 144.6 140.1 144.5 139.6 z" stroke-linecap="round" />
</g>
<g transform="matrix(2.89 0 0 2.89 477.24 254.28)"  >
<path style="stroke: none; stroke-width: 1; stroke-dasharray: none; stroke-linecap: butt; stroke-dashoffset: 0; stroke-linejoin: miter; stroke-miterlimit: 4; fill: rgb(0,0,0); fill-rule: nonzero; opacity: 1;" vector-effect="non-scaling-stroke"  transform=" translate(-157.25, -112.1)" d="M 158.8 95.5 C 158.5 101.2 157.9 106.9 157.10000000000002 112.5 C 156.3 117.9 155.10000000000002 123.3 154.8 128.8 C 154.8 129.20000000000002 155.5 129.3 155.60000000000002 128.9 C 156.3 126.2 156.60000000000002 123.30000000000001 157.00000000000003 120.60000000000001 C 157.40000000000003 117.80000000000001 157.90000000000003 115.00000000000001 158.30000000000004 112.10000000000001 C 159.10000000000005 106.60000000000001 159.50000000000003 101.10000000000001 159.70000000000005 95.5 C 159.7 94.9 158.9 94.9 158.8 95.5 z" stroke-linecap="round" />
</g>
<g transform="matrix(2.89 0 0 2.89 485.74 176)"  >
<path style="stroke: none; stroke-width: 1; stroke-dasharray: none; stroke-linecap: butt; stroke-dashoffset: 0; stroke-linejoin: miter; stroke-miterlimit: 4; fill: rgb(0,0,0); fill-rule: nonzero; opacity: 1;" vector-effect="non-scaling-stroke"  transform=" translate(-160.2, -84.99)" d="M 161.5 78.8 C 161.1 80.8 160.7 82.89999999999999 160.1 84.89999999999999 C 159.5 86.89999999999999 158.79999999999998 88.89999999999999 158.2 90.89999999999999 C 158.1 91.3 158.7 91.6 158.89999999999998 91.19999999999999 C 159.79999999999998 89.29999999999998 160.29999999999998 87.29999999999998 160.89999999999998 85.29999999999998 C 161.39999999999998 83.19999999999999 161.89999999999998 81.19999999999999 162.2 79.09999999999998 C 162.3 78.6 161.6 78.4 161.5 78.8 z" stroke-linecap="round" />
</g>
<g transform="matrix(2.89 0 0 2.89 902.09 189.46)"  >
<path style="stroke: none; stroke-width: 1; stroke-dasharray: none; stroke-linecap: butt; stroke-dashoffset: 0; stroke-linejoin: miter; stroke-miterlimit: 4; fill: rgb(0,0,0); fill-rule: nonzero; opacity: 1;" vector-effect="non-scaling-stroke"  transform=" translate(-304.43, -89.65)" d="M 327.4 86.3 C 323.4 86.39999999999999 319.4 86.89999999999999 315.4 87.3 C 311.5 87.7 307.5 87.8 303.59999999999997 88.1 C 299.9 88.39999999999999 296.29999999999995 89 292.7 89.8 C 288.9 90.7 284.9 91.5 281.2 92.7 C 281 92.8 281 93 281.2 93 C 284.9 93.1 288.5 91.8 292 91 C 295.9 90.1 299.8 89.4 303.8 89 C 307.7 88.6 311.5 88.2 315.40000000000003 88 C 319.40000000000003 87.8 323.40000000000003 87.6 327.40000000000003 87.1 C 327.9 87.1 328 86.3 327.4 86.3 z" stroke-linecap="round" />
</g>
<g transform="matrix(2.89 0 0 2.89 816.92 190.47)"  >
<path style="stroke: none; stroke-width: 1; stroke-dasharray: none; stroke-linecap: butt; stroke-dashoffset: 0; stroke-linejoin: miter; stroke-miterlimit: 4; fill: rgb(0,0,0); fill-rule: nonzero; opacity: 1;" vector-effect="non-scaling-stroke"  transform=" translate(-274.94, -90)" d="M 289.4 86.5 C 284.59999999999997 86.5 279.79999999999995 88.1 275.2 89.2 L 267.9 90.9 C 265.4 91.5 262.79999999999995 91.9 260.4 92.80000000000001 C 260 92.9 260.09999999999997 93.60000000000001 260.5 93.50000000000001 C 262.8 93.20000000000002 265.1 92.60000000000001 267.4 92.00000000000001 C 269.79999999999995 91.40000000000002 272.29999999999995 90.90000000000002 274.7 90.30000000000001 C 277.09999999999997 89.70000000000002 279.59999999999997 89.20000000000002 282 88.60000000000001 C 284.4 88.00000000000001 286.8 87.30000000000001 289.3 87.10000000000001 C 289.8 87.2 289.9 86.5 289.4 86.5 z" stroke-linecap="round" />
</g>
<g transform="matrix(2.89 0 0 2.89 865.04 219.62)"  >
<path style="stroke: none; stroke-width: 1; stroke-dasharray: none; stroke-linecap: butt; stroke-dashoffset: 0; stroke-linejoin: miter; stroke-miterlimit: 4; fill: rgb(0,0,0); fill-rule: nonzero; opacity: 1;" vector-effect="non-scaling-stroke"  transform=" translate(-291.61, -100.11)" d="M 303.4 98.7 C 299.4 99.4 295.4 100 291.4 100.3 C 287.5 100.6 283.5 100.3 279.59999999999997 100.6 C 279.09999999999997 100.6 279.2 101.19999999999999 279.59999999999997 101.3 C 283.59999999999997 101.8 287.79999999999995 101.39999999999999 291.79999999999995 101 C 295.69999999999993 100.7 299.69999999999993 100.2 303.59999999999997 99.5 C 304.2 99.4 304 98.6 303.4 98.7 z" stroke-linecap="round" />
</g>
<g transform="matrix(2.89 0 0 2.89 799.78 224.08)"  >
<path style="stroke: none; stroke-width: 1; stroke-dasharray: none; stroke-linecap: butt; stroke-dashoffset: 0; stroke-linejoin: miter; stroke-miterlimit: 4; fill: rgb(0,0,0); fill-rule: nonzero; opacity: 1;" vector-effect="non-scaling-stroke"  transform=" translate(-269, -101.66)" d="M 276.4 100.9 C 273.79999999999995 100.9 271.29999999999995 100.9 268.7 101 C 267.4 101 266.09999999999997 101.1 264.9 101.2 C 263.7 101.3 262.4 101.3 261.29999999999995 101.7 C 261.09999999999997 101.8 261.09999999999997 102.10000000000001 261.29999999999995 102.2 C 262.4 102.5 263.69999999999993 102.4 264.9 102.4 C 266.2 102.4 267.5 102.4 268.7 102.4 C 271.3 102.30000000000001 273.8 102.10000000000001 276.4 102 C 277 101.9 277 100.9 276.4 100.9 z" stroke-linecap="round" />
</g>
<g transform="matrix(2.89 0 0 2.89 935.51 201.55)"  >
<path style="stroke: none; stroke-width: 1; stroke-dasharray: none; stroke-linecap: butt; stroke-dashoffset: 0; stroke-linejoin: miter; stroke-miterlimit: 4; fill: rgb(0,0,0); fill-rule: nonzero; opacity: 1;" vector-effect="non-scaling-stroke"  transform=" translate(-316.03, -93.85)" d="M 320 92.5 C 318.6 92.8 317.2 93.1 315.8 93.4 C 315.1 93.5 314.40000000000003 93.7 313.8 93.9 C 313.40000000000003 94 313.1 94.2 312.7 94.30000000000001 C 312.4 94.4 312 94.50000000000001 311.7 94.60000000000001 C 311.4 94.7 311.59999999999997 95.2 311.9 95.2 C 312.29999999999995 95.2 312.59999999999997 95.2 313 95.10000000000001 C 313.4 95.10000000000001 313.7 95.10000000000001 314.1 95.00000000000001 C 314.8 94.90000000000002 315.5 94.80000000000001 316.1 94.60000000000001 C 317.5 94.2 318.90000000000003 93.80000000000001 320.3 93.4 C 320.7 93.2 320.5 92.4 320 92.5 z" stroke-linecap="round" />
</g>
<g transform="matrix(2.89 0 0 2.89 897.98 173.8)"  >
<path style="stroke: none; stroke-width: 1; stroke-dasharray: none; stroke-linecap: butt; stroke-dashoffset: 0; stroke-linejoin: miter; stroke-miterlimit: 4; fill: rgb(0,0,0); fill-rule: nonzero; opacity: 1;" vector-effect="non-scaling-stroke"  transform=" translate(-303.03, -84.23)" d="M 313.6 83.5 C 309.90000000000003 83.6 306.1 83.2 302.40000000000003 83.1 C 300.6 83 298.90000000000003 83.1 297.20000000000005 83.3 C 295.70000000000005 83.5 293.70000000000005 83.7 292.50000000000006 84.7 C 292.20000000000005 84.9 292.50000000000006 85.4 292.80000000000007 85.4 C 294.4000000000001 85.2 295.9000000000001 84.5 297.50000000000006 84.2 C 299.30000000000007 83.9 301.20000000000005 83.8 303.00000000000006 83.8 C 304.80000000000007 83.8 306.50000000000006 83.8 308.20000000000005 83.89999999999999 C 310.00000000000006 83.99999999999999 311.80000000000007 83.8 313.6 83.6 C 313.7 83.7 313.7 83.5 313.6 83.5 z" stroke-linecap="round" />
</g>
<g transform="matrix(2.89 0 0 2.89 948.13 173.77)"  >
<path style="stroke: none; stroke-width: 1; stroke-dasharray: none; stroke-linecap: butt; stroke-dashoffset: 0; stroke-linejoin: miter; stroke-miterlimit: 4; fill: rgb(0,0,0); fill-rule: nonzero; opacity: 1;" vector-effect="non-scaling-stroke"  transform=" translate(-320.41, -84.22)" d="M 324.5 83.8 C 323.1 83.7 321.7 83.6 320.3 83.6 C 319.6 83.6 318.90000000000003 83.6 318.2 83.69999999999999 C 317.5 83.69999999999999 316.8 83.69999999999999 316.2 83.99999999999999 C 315.9 84.09999999999998 315.8 84.69999999999999 316.2 84.79999999999998 C 316.9 84.89999999999998 317.59999999999997 84.79999999999998 318.2 84.79999999999998 C 318.9 84.79999999999998 319.59999999999997 84.69999999999999 320.3 84.69999999999999 C 321.7 84.69999999999999 323.1 84.6 324.5 84.69999999999999 C 325 84.7 325 83.9 324.5 83.8 z" stroke-linecap="round" />
</g>
<g transform="matrix(2.89 0 0 2.89 966.14 193.76)"  >
<path style="stroke: none; stroke-width: 1; stroke-dasharray: none; stroke-linecap: butt; stroke-dashoffset: 0; stroke-linejoin: miter; stroke-miterlimit: 4; fill: rgb(0,0,0); fill-rule: nonzero; opacity: 1;" vector-effect="non-scaling-stroke"  transform=" translate(-326.65, -91.15)" d="M 327.1 91 C 326.8 91.1 326.5 91.2 326.20000000000005 91.3 C 326.20000000000005 91.3 326.20000000000005 91.3 326.20000000000005 91.3 C 326.5 91.3 326.8 91.2 327.1 91 C 327.1 91.1 327.1 91 327.1 91 z" stroke-linecap="round" />
</g>
<g transform="matrix(2.89 0 0 2.89 930.69 83.49)"  >
<path style="stroke: none; stroke-width: 1; stroke-dasharray: none; stroke-linecap: butt; stroke-dashoffset: 0; stroke-linejoin: miter; stroke-miterlimit: 4; fill: rgb(0,0,0); fill-rule: nonzero; opacity: 1;" vector-effect="non-scaling-stroke"  transform=" translate(-314.35, -52.94)" d="M 336.1 45.4 C 329.1 48.9 321.8 51.9 314.40000000000003 54.3 C 310.8 55.5 307.1 56.5 303.40000000000003 57.4 C 299.6 58.3 295.70000000000005 58.8 292.00000000000006 59.9 C 291.70000000000005 60 291.70000000000005 60.6 292.1000000000001 60.5 C 295.9000000000001 60.4 299.80000000000007 59.4 303.50000000000006 58.6 C 307.40000000000003 57.7 311.20000000000005 56.6 315.00000000000006 55.4 C 322.50000000000006 53 329.70000000000005 49.9 336.70000000000005 46.3 C 337.2 46 336.7 45.2 336.1 45.4 z" stroke-linecap="round" />
</g>
<g transform="matrix(2.89 0 0 2.89 868.56 87.88)"  >
<path style="stroke: none; stroke-width: 1; stroke-dasharray: none; stroke-linecap: butt; stroke-dashoffset: 0; stroke-linejoin: miter; stroke-miterlimit: 4; fill: rgb(0,0,0); fill-rule: nonzero; opacity: 1;" vector-effect="non-scaling-stroke"  transform=" translate(-292.83, -54.46)" d="M 307.8 46.8 C 303.1 50.199999999999996 297.1 51.099999999999994 291.8 53.3 C 289.2 54.4 286.7 55.599999999999994 284.3 56.9 C 281.8 58.3 279 59.699999999999996 277.2 61.9 C 277.09999999999997 62 277.2 62.3 277.4 62.199999999999996 C 280 61.199999999999996 282.29999999999995 59.3 284.7 57.9 C 287.4 56.4 290.09999999999997 55.1 293 53.9 C 298.1 51.8 303.9 50.8 308.4 47.5 C 308.7 47.2 308.2 46.4 307.8 46.8 z" stroke-linecap="round" />
</g>
<g transform="matrix(2.89 0 0 2.89 883.03 115.96)"  >
<path style="stroke: none; stroke-width: 1; stroke-dasharray: none; stroke-linecap: butt; stroke-dashoffset: 0; stroke-linejoin: miter; stroke-miterlimit: 4; fill: rgb(0,0,0); fill-rule: nonzero; opacity: 1;" vector-effect="non-scaling-stroke"  transform=" translate(-297.84, -64.19)" d="M 307.4 60.1 C 304.09999999999997 61.5 300.79999999999995 62.9 297.5 64.2 C 295.9 64.8 294.3 65.5 292.6 66 C 290.90000000000003 66.6 289.20000000000005 66.9 287.70000000000005 67.8 C 287.50000000000006 67.89999999999999 287.6 68.3 287.80000000000007 68.3 C 289.6000000000001 68.39999999999999 291.30000000000007 67.8 293.00000000000006 67.2 C 294.70000000000005 66.60000000000001 296.40000000000003 66 298.00000000000006 65.3 C 301.30000000000007 63.9 304.50000000000006 62.5 307.80000000000007 61 C 308.4 60.9 308 59.9 307.4 60.1 z" stroke-linecap="round" />
</g>
<g transform="matrix(2.89 0 0 2.89 948.04 57.82)"  >
<path style="stroke: none; stroke-width: 1; stroke-dasharray: none; stroke-linecap: butt; stroke-dashoffset: 0; stroke-linejoin: miter; stroke-miterlimit: 4; fill: rgb(0,0,0); fill-rule: nonzero; opacity: 1;" vector-effect="non-scaling-stroke"  transform=" translate(-320.37, -44.04)" d="M 328.2 40.1 C 325.4 41.1 322.7 42.2 320 43.4 C 318.6 44 317.3 44.699999999999996 315.9 45.3 C 314.7 45.9 313.2 46.5 312.09999999999997 47.4 C 311.79999999999995 47.699999999999996 312.09999999999997 48.1 312.49999999999994 48 C 313.19999999999993 47.8 313.79999999999995 47.5 314.3999999999999 47.2 C 315.0999999999999 46.900000000000006 315.7999999999999 46.6 316.3999999999999 46.2 C 317.69999999999993 45.6 318.99999999999994 45 320.19999999999993 44.5 C 322.8999999999999 43.3 325.5999999999999 42.1 328.3999999999999 41.1 C 329 40.9 328.8 39.9 328.2 40.1 z" stroke-linecap="round" />
</g>
</svg>